<svg xmlns="http://www.w3.org/2000/svg" width="107" height="17" viewBox="0 0 107 17" fill="none">
  <path fill-rule="evenodd" clip-rule="evenodd" d="M98.0989 0.346894L99.9458 5.71677L105.716 5.78238C106.213 5.78806 106.418 6.40946 106.02 6.70028L101.39 10.0842L103.11 15.4945C103.258 15.96 102.72 16.3436 102.315 16.0616L97.6075 12.783L92.8996 16.061C92.4949 16.343 91.9566 15.9588 92.1043 15.4938L93.8239 10.0836L89.1944 6.69965C88.7961 6.40883 89.0016 5.78743 89.4982 5.78175L95.2686 5.71614L97.1155 0.346263C97.2748 -0.115526 97.9403 -0.115526 98.0989 0.346894Z" fill="#C7E7DC"/>
  <path fill-rule="evenodd" clip-rule="evenodd" d="M75.8528 0.346894L77.6997 5.71677L83.4701 5.78238C83.9666 5.78806 84.1722 6.40946 83.7739 6.70028L79.1444 10.0842L80.864 15.4945C81.0117 15.96 80.4741 16.3436 80.0687 16.0616L75.3614 12.783L70.6535 16.061C70.2488 16.343 69.7105 15.9588 69.8582 15.4938L71.5778 10.0836L66.9483 6.69965C66.55 6.40883 66.7556 5.78743 67.2521 5.78175L73.0225 5.71614L74.8694 0.346263C75.0287 -0.115526 75.6942 -0.115526 75.8528 0.346894Z" fill="#C7E7DC"/>
  <path fill-rule="evenodd" clip-rule="evenodd" d="M53.6067 0.346894L55.4536 5.71677L61.224 5.78238C61.7205 5.78806 61.9261 6.40946 61.5278 6.70028L56.8983 10.0842L58.6179 15.4945C58.7656 15.96 58.228 16.3436 57.8226 16.0616L53.1153 12.783L48.4074 16.061C48.0027 16.343 47.4644 15.9588 47.6121 15.4938L49.3318 10.0836L44.7022 6.69965C44.3039 6.40883 44.5095 5.78743 45.006 5.78175L50.7764 5.71614L52.6233 0.346263C52.7826 -0.115526 53.4481 -0.115526 53.6067 0.346894Z" fill="#C7E7DC"/>
  <path fill-rule="evenodd" clip-rule="evenodd" d="M31.3606 0.346894L33.2075 5.71677L38.9779 5.78238C39.4745 5.78806 39.68 6.40946 39.2817 6.70028L34.6522 10.0842L36.3718 15.4945C36.5195 15.96 35.9819 16.3436 35.5765 16.0616L30.8692 12.783L26.1613 16.061C25.7566 16.343 25.2183 15.9588 25.366 15.4938L27.0857 10.0836L22.4561 6.69965C22.0578 6.40883 22.2634 5.78743 22.7599 5.78175L28.5304 5.71614L30.3772 0.346263C30.5365 -0.115526 31.202 -0.115526 31.3606 0.346894Z" fill="#C7E7DC"/>
  <path fill-rule="evenodd" clip-rule="evenodd" d="M9.11455 0.346894L10.9614 5.71677L16.7318 5.78238C17.2284 5.78806 17.4339 6.40946 17.0357 6.70028L12.4061 10.0842L14.1257 15.4945C14.2734 15.96 13.7358 16.3436 13.3304 16.0616L8.62314 12.783L3.91519 16.061C3.5105 16.343 2.97219 15.9588 3.11993 15.4938L4.83956 10.0836L0.209984 6.69965C-0.188287 6.40883 0.0172725 5.78743 0.513827 5.78175L6.28426 5.71614L8.13108 0.346263C8.29039 -0.115526 8.95589 -0.115526 9.11455 0.346894Z" fill="#C7E7DC"/>
</svg>