<svg xmlns="http://www.w3.org/2000/svg" width="15" height="20" viewBox="0 0 15 20"
                                    fill="none">
                                    <path
                                        d="M12.4948 4.74954H2.14976C1.99101 4.74798 1.83753 4.84143 1.71894 5.01182C1.60035 5.18221 1.52506 5.41748 1.5076 5.67222L1.00031 17.9626C0.997634 18.0999 1.01241 18.2366 1.04373 18.3644C1.07506 18.4921 1.12226 18.6081 1.18243 18.7053C1.2426 18.8024 1.31447 18.8786 1.39359 18.9292C1.47271 18.9798 1.55741 19.0036 1.64246 18.9993H13.1081C13.2784 18.9993 13.4418 18.8901 13.5622 18.6957C13.6826 18.5012 13.7503 18.2375 13.7503 17.9626L13.137 5.66186C13.1181 5.40899 13.0421 5.17623 12.9237 5.00796C12.8053 4.83969 12.6526 4.7477 12.4948 4.74954V4.74954Z"
                                        stroke="white" stroke-linecap="round" stroke-linejoin="round" />
                                    <path
                                        d="M4.00195 7.75014V4.21435C4.00195 3.36185 4.35755 2.54427 4.9905 1.94146C5.62344 1.33865 6.4819 1 7.37702 1C8.27215 1 9.13061 1.33865 9.76356 1.94146C10.3965 2.54427 10.7521 3.36185 10.7521 4.21435V7.75014"
                                        stroke="white" stroke-linecap="round" stroke-linejoin="round" />
                                </svg>